<svg width="674" height="191" viewBox="0 0 674 191" fill="none" xmlns="http://www.w3.org/2000/svg">
<g filter="url(#filter0_i)">
<path d="M12.8 102H2.89998V31.9999H16.7L28 73.8999V31.9999H37.8V102H26.5L12.8 51.2999V102Z" fill="white" />
<path d="M44.7758 48.7999C44.7758 43.1999 46.2091 38.8666 49.0758 35.7999C51.9424 32.7333 56.0758 31.2 61.4758 31.2C66.8758 31.2 71.0091 32.7333 73.8758 35.7999C76.7424 38.8666 78.1758 43.1999 78.1758 48.7999V85.1999C78.1758 90.7999 76.7424 95.1333 73.8758 98.2C71.0091 101.267 66.8758 102.8 61.4758 102.8C56.0758 102.8 51.9424 101.267 49.0758 98.2C46.2091 95.1333 44.7758 90.7999 44.7758 85.1999V48.7999ZM55.7758 85.8999C55.7758 90.4999 57.6758 92.8 61.4758 92.8C65.2758 92.8 67.1758 90.4999 67.1758 85.8999V48.0999C67.1758 43.4999 65.2758 41.1999 61.4758 41.1999C57.6758 41.1999 55.7758 43.4999 55.7758 48.0999V85.8999Z" fill="white"/>
<path d="M108.324 102C107.924 100.867 107.658 99.8 107.524 98.8C107.391 97.8 107.324 96 107.324 93.4V82.3999C107.324 79.1999 106.758 76.9333 105.624 75.5999C104.491 74.1999 102.658 73.4999 100.124 73.4999H96.3242V102H85.3242V31.9999H101.924C107.591 31.9999 111.724 33.3333 114.324 35.9999C116.924 38.5999 118.224 42.6333 118.224 48.0999V53.5999C118.224 60.7999 115.824 65.5333 111.024 67.7999C113.624 68.8666 115.491 70.6666 116.624 73.1999C117.758 75.6666 118.324 78.8333 118.324 82.7V93.5C118.324 95.5 118.391 97.1333 118.524 98.4C118.658 99.6 118.991 100.8 119.524 102H108.324ZM96.3242 63.4999H100.624C102.824 63.4999 104.458 62.9333 105.524 61.7999C106.658 60.6666 107.224 58.7666 107.224 56.0999V49.2C107.224 46.6666 106.758 44.8333 105.824 43.7C104.958 42.5666 103.558 41.9999 101.624 41.9999H96.3242V63.4999Z" fill="white"/>
<path d="M156.359 31.9999V41.9999H144.859V102H133.859V41.9999H122.359V31.9999H156.359Z" fill="white"/>
<path d="M161.203 102V31.9999H172.203V62H184.703V31.9999H195.903V102H184.703V72H172.203V102H161.203Z" fill="white"/>
<path d="M218.006 48.7999C218.006 43.1333 219.373 38.7999 222.106 35.7999C224.84 32.7333 228.873 31.2 234.206 31.2C239.54 31.2 243.573 32.7333 246.306 35.7999C249.04 38.7999 250.406 43.1333 250.406 48.7999V50.9999H240.006V48.0999C240.006 45.6999 239.54 43.9666 238.606 42.8999C237.673 41.7666 236.306 41.1999 234.506 41.1999C232.706 41.1999 231.34 41.7666 230.406 42.8999C229.473 43.9666 229.006 45.6999 229.006 48.0999C229.006 51.0333 229.773 53.5999 231.306 55.7999C232.906 57.9999 235.273 60.4999 238.406 63.2999C241.006 65.7 243.106 67.8333 244.706 69.6999C246.306 71.4999 247.673 73.6999 248.806 76.2999C249.94 78.8999 250.506 81.8666 250.506 85.1999C250.506 90.8666 249.106 95.2333 246.306 98.3C243.506 101.3 239.44 102.8 234.106 102.8C228.773 102.8 224.706 101.3 221.906 98.3C219.106 95.2333 217.706 90.8666 217.706 85.1999V80.8999H228.106V85.8999C228.106 90.4333 230.006 92.6999 233.806 92.6999C237.606 92.6999 239.506 90.4333 239.506 85.8999C239.506 82.9666 238.706 80.4 237.106 78.2C235.573 75.9999 233.24 73.4999 230.106 70.6999C227.506 68.2999 225.406 66.1999 223.806 64.3999C222.206 62.5333 220.84 60.3 219.706 57.7C218.573 55.1 218.006 52.1333 218.006 48.7999Z" fill="white"/>
<path d="M287.609 31.9999V41.9999H276.109V102H265.109V41.9999H253.609V31.9999H287.609Z" fill="white"/>
<path d="M315.453 102C315.053 100.867 314.786 99.8 314.653 98.8C314.52 97.8 314.453 96 314.453 93.4V82.3999C314.453 79.1999 313.886 76.9333 312.753 75.5999C311.62 74.1999 309.786 73.4999 307.253 73.4999H303.453V102H292.453V31.9999H309.053C314.72 31.9999 318.853 33.3333 321.453 35.9999C324.053 38.5999 325.353 42.6333 325.353 48.0999V53.5999C325.353 60.7999 322.953 65.5333 318.153 67.7999C320.753 68.8666 322.62 70.6666 323.753 73.1999C324.886 75.6666 325.453 78.8333 325.453 82.7V93.5C325.453 95.5 325.52 97.1333 325.653 98.4C325.786 99.6 326.12 100.8 326.653 102H315.453ZM303.453 63.4999H307.753C309.953 63.4999 311.586 62.9333 312.653 61.7999C313.786 60.6666 314.353 58.7666 314.353 56.0999V49.2C314.353 46.6666 313.886 44.8333 312.953 43.7C312.086 42.5666 310.686 41.9999 308.753 41.9999H303.453V63.4999Z" fill="white"/>
<path d="M358.787 61.4999V71.5H343.687V92H362.687V102H332.687V31.9999H362.687V41.9999H343.687V61.4999H358.787Z" fill="white"/>
<path d="M395.604 61.4999V71.5H380.504V92H399.504V102H369.504V31.9999H399.504V41.9999H380.504V61.4999H395.604Z" fill="white"/>
<path d="M437.12 31.9999V41.9999H425.62V102H414.62V41.9999H403.12V31.9999H437.12Z" fill="white"/>
<path d="M8.39998 116.7C10.9666 116.7 12.8666 117.517 14.1 119.15C15.3333 120.75 15.95 122.883 15.95 125.55V128.45H13.75V125.4C13.75 123.4 13.3166 121.8 12.45 120.6C11.6166 119.4 10.2833 118.8 8.44998 118.8C6.61664 118.8 5.26664 119.4 4.39998 120.6C3.56664 121.8 3.14998 123.4 3.14998 125.4V143.6C3.14998 145.6 3.56664 147.2 4.39998 148.4C5.26664 149.567 6.61664 150.15 8.44998 150.15C10.2833 150.15 11.6166 149.567 12.45 148.4C13.3166 147.2 13.75 145.6 13.75 143.6V139.45H15.95V143.45C15.95 146.117 15.3333 148.267 14.1 149.9C12.8666 151.5 10.9666 152.3 8.39998 152.3C5.83331 152.3 3.93331 151.5 2.69998 149.9C1.46664 148.267 0.849976 146.117 0.849976 143.45V125.55C0.849976 122.883 1.46664 120.75 2.69998 119.15C3.93331 117.517 5.83331 116.7 8.39998 116.7Z" fill="white"/>
<path d="M21.3011 152H19.2011L26.8511 116.95H30.2011L38.0011 152H35.7011L33.9511 144.25H23.0511L21.3011 152ZM33.6012 142.25L28.4511 119.6L23.4011 142.25H33.6012Z" fill="white"/>
<path d="M48.7285 117C51.3285 117 53.2285 117.75 54.4285 119.25C55.6285 120.75 56.2285 122.833 56.2285 125.5V129.3C56.2285 132.1 55.5618 134.183 54.2285 135.55C52.9285 136.917 50.8952 137.6 48.1285 137.6H43.7785V152H41.4785V117H48.7285ZM48.1285 135.5C50.1618 135.5 51.6285 135.033 52.5285 134.1C53.4618 133.133 53.9285 131.583 53.9285 129.45V125.35C53.9285 123.317 53.5285 121.767 52.7285 120.7C51.9285 119.633 50.5952 119.1 48.7285 119.1H43.7785V135.5H48.1285Z" fill="white"/>
<path d="M62.089 152H59.789V117H62.089V152Z" fill="white"/>
<path d="M72.1379 119.1H64.9879V117H81.5379V119.1H74.4379V152H72.1379V119.1Z" fill="white"/>
<path d="M84.2406 152H82.1406L89.7906 116.95H93.1406L100.941 152H98.6406L96.8906 144.25H85.9906L84.2406 152ZM96.5406 142.25L91.3906 119.6L86.3406 142.25H96.5406Z" fill="white"/>
<path d="M104.418 117H106.718V149.9H117.718V152H104.418V117Z" fill="white"/>
<path d="M136.18 117C138.78 117 140.68 117.75 141.88 119.25C143.08 120.75 143.68 122.833 143.68 125.5V129.3C143.68 132.1 143.013 134.183 141.68 135.55C140.38 136.917 138.346 137.6 135.58 137.6H131.23V152H128.93V117H136.18ZM135.58 135.5C137.613 135.5 139.08 135.033 139.98 134.1C140.913 133.133 141.38 131.583 141.38 129.45V125.35C141.38 123.317 140.98 121.767 140.18 120.7C139.38 119.633 138.046 119.1 136.18 119.1H131.23V135.5H135.58Z" fill="white"/>
<path d="M148.205 152H146.105L153.755 116.95H157.105L164.905 152H162.605L160.855 144.25H149.955L148.205 152ZM160.505 142.25L155.355 119.6L150.305 142.25H160.505Z" fill="white"/>
<path d="M175.683 117C180.683 117 183.183 119.633 183.183 124.9V127.95C183.183 130.017 182.766 131.65 181.933 132.85C181.133 134.017 179.866 134.8 178.133 135.2C181.499 135.933 183.183 138.317 183.183 142.35V147.8C183.183 149.733 183.466 151.133 184.033 152H181.633C181.333 151.5 181.133 150.933 181.033 150.3C180.933 149.633 180.883 148.8 180.883 147.8V142.3C180.883 140.1 180.333 138.567 179.233 137.7C178.133 136.8 176.499 136.35 174.333 136.35H170.683V152H168.383V117H175.683ZM174.383 134.25C176.583 134.25 178.216 133.833 179.283 133C180.349 132.167 180.883 130.633 180.883 128.4V125.1C180.883 123.133 180.466 121.65 179.633 120.65C178.799 119.617 177.466 119.1 175.633 119.1H170.683V134.25H174.383Z" fill="white"/>
<path d="M193.72 119.1H186.57V117H203.12V119.1H196.02V152H193.72V119.1Z" fill="white"/>
<path d="M206.127 152V117H209.127L219.627 146.55V117H221.727V152H219.177L208.227 120.8V152H206.127Z" fill="white"/>
<path d="M237.508 135.3H227.958V149.9H239.458V152H225.658V117H239.458V119.1H227.958V133.2H237.508V135.3Z" fill="white"/>
<path d="M250.487 117C255.487 117 257.987 119.633 257.987 124.9V127.95C257.987 130.017 257.571 131.65 256.737 132.85C255.937 134.017 254.671 134.8 252.937 135.2C256.304 135.933 257.987 138.317 257.987 142.35V147.8C257.987 149.733 258.271 151.133 258.837 152H256.437C256.137 151.5 255.937 150.933 255.837 150.3C255.737 149.633 255.687 148.8 255.687 147.8V142.3C255.687 140.1 255.137 138.567 254.037 137.7C252.937 136.8 251.304 136.35 249.137 136.35H245.487V152H243.187V117H250.487ZM249.187 134.25C251.387 134.25 253.021 133.833 254.087 133C255.154 132.167 255.687 130.633 255.687 128.4V125.1C255.687 123.133 255.271 121.65 254.437 120.65C253.604 119.617 252.271 119.1 250.437 119.1H245.487V134.25H249.187Z" fill="white"/>
<path d="M269.775 116.7C272.308 116.7 274.175 117.5 275.375 119.1C276.608 120.667 277.225 122.783 277.225 125.45V126.2H275.025V125.3C275.025 123.3 274.608 121.717 273.775 120.55C272.941 119.383 271.625 118.8 269.825 118.8C268.025 118.8 266.708 119.383 265.875 120.55C265.041 121.717 264.625 123.283 264.625 125.25C264.625 126.517 264.891 127.65 265.425 128.65C265.958 129.617 266.608 130.467 267.375 131.2C268.175 131.9 269.258 132.75 270.625 133.75C272.058 134.783 273.225 135.7 274.125 136.5C275.025 137.3 275.775 138.283 276.375 139.45C276.975 140.617 277.275 141.983 277.275 143.55C277.275 146.217 276.658 148.35 275.425 149.95C274.191 151.517 272.291 152.3 269.725 152.3C267.158 152.3 265.258 151.517 264.025 149.95C262.791 148.35 262.175 146.217 262.175 143.55V141.75H264.375V143.7C264.375 145.7 264.791 147.283 265.625 148.45C266.491 149.583 267.841 150.15 269.675 150.15C271.508 150.15 272.841 149.583 273.675 148.45C274.541 147.283 274.975 145.7 274.975 143.7C274.975 142.433 274.708 141.317 274.175 140.35C273.641 139.383 272.975 138.55 272.175 137.85C271.408 137.117 270.358 136.267 269.025 135.3C267.591 134.267 266.425 133.35 265.525 132.55C264.625 131.717 263.858 130.717 263.225 129.55C262.625 128.35 262.325 126.967 262.325 125.4C262.325 122.7 262.941 120.583 264.175 119.05C265.408 117.517 267.275 116.733 269.775 116.7Z" fill="white"/>
</g>
<g filter="url(#filter1_i)" >
<path  fill-rule="evenodd" clip-rule="evenodd" d="M653.998 95.9991C653.999 95.8839 654 95.7686 654 95.6533L654 95.5C654 53.8025 620.197 20 578.5 20C578.334 20 578.167 20.0005 578.001 20.0016L582.049 26.9597L603.263 63.4215L605.954 68.046L610.578 70.7366L647.04 91.9507L653.998 95.9991ZM503 95.4182C503.044 53.9254 536.559 20.2709 577.999 20.0016L573.951 26.9597L552.737 63.4215L550.046 68.046L545.422 70.7366L508.96 91.9507L503 95.4182ZM550.648 75.7941L553.15 71.1496L557.794 68.6484L578 57.7667L598.206 68.6484L602.85 71.1496L605.352 75.7941L616.233 96L605.352 116.206L604.367 118.033L598.206 121.352L578 132.233L557.794 121.352L551.633 118.033L550.648 116.206L539.767 96L550.648 75.7941ZM653.998 96.0009L647.04 100.049L610.578 121.263L604.195 124.978L603.263 126.578L582.049 163.04L578 170L573.951 163.04L552.737 126.578L551.805 124.978L545.422 121.263L508.96 100.049L503.008 96.5863C503.589 137.783 537.165 171 578.5 171C620.03 171 653.729 137.468 653.998 96.0009ZM578.5 191C631.243 191 674 148.243 674 95.5C674 42.7568 631.243 0 578.5 0C525.757 0 483 42.7568 483 95.5C483 148.243 525.757 191 578.5 191ZM538.306 56.6784L539.804 56.2289L552.635 52.3805L539.685 48.9568L535.098 47.7443L527.314 45.6863L529.372 53.4708L530.584 58.0572L534.008 71.0079L537.856 58.177L538.306 56.6784ZM533.604 99.3191L539.07 109.469L515.919 96L539.07 82.5306L533.604 92.6809L531.816 96L533.604 99.3191ZM591.469 132.93L581.319 138.396L578 140.184L574.681 138.396L564.531 132.93L578 156.081L591.469 132.93ZM622.396 99.3191L616.93 109.469L640.081 96L616.93 82.5306L622.396 92.6809L624.184 96L622.396 99.3191ZM564.531 57.0699L574.681 51.6036L578 49.8161L581.319 51.6036L591.469 57.0699L578 33.9194L564.531 57.0699ZM616.196 137.779L617.694 137.33L618.144 135.831L621.992 123L625.416 135.951L626.628 140.537L628.686 148.322L620.902 146.264L616.315 145.051L603.365 141.627L616.196 137.779ZM617.694 56.6784L616.196 56.2289L603.365 52.3805L616.315 48.9568L620.902 47.7443L628.686 45.6863L626.628 53.4708L625.416 58.0572L621.992 71.0079L618.144 58.177L617.694 56.6784ZM539.804 137.779L538.306 137.33L537.856 135.831L534.008 123L530.584 135.951L529.372 140.537L527.314 148.322L535.098 146.264L539.685 145.051L552.635 141.627L539.804 137.779Z" shape-rendering="geometricPrecision" fill="#F2F2F2"/>
</g>
<defs>
<filter id="filter0_i" x="0.849976" y="31.2" width="441.27" height="125.1" filterUnits="userSpaceOnUse" color-interpolation-filters="sRGB">
<feFlood flood-opacity="0" result="BackgroundImageFix"/>
<feBlend mode="normal" in="SourceGraphic" in2="BackgroundImageFix" result="shape"/>
<feColorMatrix in="SourceAlpha" type="matrix" values="0 0 0 0 0 0 0 0 0 0 0 0 0 0 0 0 0 0 127 0" result="hardAlpha"/>
<feOffset dx="5" dy="4"/>
<feGaussianBlur stdDeviation="4"/>
<feComposite in2="hardAlpha" operator="arithmetic" k2="-1" k3="1"/>
<feColorMatrix type="matrix" values="0 0 0 0 0 0 0 0 0 0 0 0 0 0 0 0 0 0 0.5 0"/>
<feBlend mode="normal" in2="shape" result="effect1_innerShadow"/>
</filter>
<filter id="filter1_i" x="483" y="0" width="196" height="195" filterUnits="userSpaceOnUse" color-interpolation-filters="sRGB" >
<feFlood flood-opacity="0" result="BackgroundImageFix"/>
<feBlend mode="normal" in="SourceGraphic" in2="BackgroundImageFix" result="shape"/>
<feColorMatrix in="SourceAlpha" type="matrix" values="0 0 0 0 0 0 0 0 0 0 0 0 0 0 0 0 0 0 127 0" result="hardAlpha"/>
<feOffset dx="5" dy="4"/>
<feGaussianBlur stdDeviation="4"/>
<feComposite in2="hardAlpha" operator="arithmetic" k2="-1" k3="1"/>
<feColorMatrix type="matrix" values="0 0 0 0 0 0 0 0 0 0 0 0 0 0 0 0 0 0 0.5 0"/>
<feBlend mode="normal" in2="shape" result="effect1_innerShadow"/>
</filter>
</defs>
</svg>
