<svg width="191" height="191" viewBox="0 0 191 191" fill="none" xmlns="http://www.w3.org/2000/svg">
<g filter="url(#filter0_i)">
<path fill-rule="evenodd" clip-rule="evenodd" d="M170.998 95.9991C170.999 95.8839 171 95.7686 171 95.6533L171 95.5C171 53.8025 137.197 20 95.5 20C95.3335 20 95.1672 20.0005 95.0009 20.0016L99.0493 26.9597L120.263 63.4215L122.954 68.046L127.578 70.7366L164.04 91.9507L170.998 95.9991ZM20 95.4182C20.0441 53.9254 53.5593 20.2709 94.9991 20.0016L90.9507 26.9597L69.7366 63.4215L67.046 68.046L62.4215 70.7366L25.9597 91.9507L20 95.4182ZM67.6484 75.7941L70.1496 71.1496L74.7941 68.6484L95 57.7667L115.206 68.6484L119.85 71.1496L122.352 75.7941L133.233 96L122.352 116.206L121.367 118.033L115.206 121.352L95 132.233L74.7941 121.352L68.6326 118.033L67.6484 116.206L56.7667 96L67.6484 75.7941ZM170.998 96.0009L164.04 100.049L127.578 121.263L121.195 124.978L120.263 126.578L99.0493 163.04L95 170L90.9507 163.04L69.7366 126.578L68.8051 124.978L62.4215 121.263L25.9597 100.049L20.0077 96.5863C20.5886 137.783 54.1652 171 95.5 171C137.03 171 170.729 137.468 170.998 96.0009ZM95.5 191C148.243 191 191 148.243 191 95.5C191 42.7568 148.243 0 95.5 0C42.7568 0 0 42.7568 0 95.5C0 148.243 42.7568 191 95.5 191ZM55.3058 56.6784L56.8044 56.2289L69.6353 52.3805L56.6846 48.9568L52.0983 47.7443L44.3137 45.6863L46.3717 53.4708L47.5842 58.0572L51.0079 71.0079L54.8563 58.177L55.3058 56.6784ZM50.6036 99.3191L56.0699 109.469L32.9194 96L56.0699 82.5306L50.6036 92.6809L48.8161 96L50.6036 99.3191ZM108.469 132.93L98.3191 138.396L95 140.184L91.6809 138.396L81.5306 132.93L95 156.081L108.469 132.93ZM139.396 99.3191L133.93 109.469L157.081 96L133.93 82.5306L139.396 92.6809L141.184 96L139.396 99.3191ZM81.5306 57.0699L91.6809 51.6036L95 49.8161L98.3191 51.6036L108.469 57.0699L95 33.9194L81.5306 57.0699ZM133.196 137.779L134.694 137.33L135.144 135.831L138.992 123L142.416 135.951L143.628 140.537L145.686 148.322L137.902 146.264L133.315 145.051L120.365 141.627L133.196 137.779ZM134.694 56.6784L133.196 56.2289L120.365 52.3805L133.315 48.9568L137.902 47.7443L145.686 45.6863L143.628 53.4708L142.416 58.0572L138.992 71.0079L135.144 58.177L134.694 56.6784ZM56.8044 137.779L55.3058 137.33L54.8563 135.831L51.0079 123L47.5842 135.951L46.3717 140.537L44.3137 148.322L52.0983 146.264L56.6846 145.051L69.6353 141.627L56.8044 137.779Z" fill="#F2F2F2"/>
</g>
<path d="M72.2653 66.035L95 26.9597L117.735 66.035L96.6595 54.6851L95 53.7914L93.3405 54.6851L72.2653 66.035Z" stroke="url(#paint0_linear)" stroke-width="7"/>
<defs>
<filter id="filter0_i" x="0" y="0" width="196" height="195" filterUnits="userSpaceOnUse" color-interpolation-filters="sRGB">
<feFlood flood-opacity="0" result="BackgroundImageFix"/>
<feBlend mode="normal" in="SourceGraphic" in2="BackgroundImageFix" result="shape"/>
<feColorMatrix in="SourceAlpha" type="matrix" values="0 0 0 0 0 0 0 0 0 0 0 0 0 0 0 0 0 0 127 0" result="hardAlpha"/>
<feOffset dx="5" dy="4"/>
<feGaussianBlur stdDeviation="4"/>
<feComposite in2="hardAlpha" operator="arithmetic" k2="-1" k3="1"/>
<feColorMatrix type="matrix" values="0 0 0 0 0 0 0 0 0 0 0 0 0 0 0 0 0 0 0.5 0"/>
<feBlend mode="normal" in2="shape" result="effect1_innerShadow"/>
</filter>
<linearGradient id="paint0_linear" x1="95" y1="20" x2="93" y2="80.5" gradientUnits="userSpaceOnUse">
<stop stop-color="#001855"/>
<stop offset="1" stop-color="white" stop-opacity="0"/>
</linearGradient>
</defs>
</svg>
